PathFileType	4	(X/Y/Z)	 s02c0402.trc
DataRate	CameraRate	NumFrames	NumMarkers	Units	OrigDataRate	OrigDataStartFrame	OrigNumFrames
200	200	6	50	mm	200	1	2000
Frame#	Time	racr			lacr			c7			jug			rlel			rdr			llel			ldr			s2			lic			ric			lasi			rasi			rpsi			lpsi			rgt			lgt			rth1			rth2			rth3			rth4			rlfc			rmfc			rsh1			rsh2			rsh3			rsh4			rlmal			rmmal			rtoe			rmt5			rmt1			lth1			lth2			lth4			lth3			llfc			lmfc			lsh1			lsh2			lsh3			lsh4			llmal			lmmal			lcal			ltoe			lmt5			SBIKE			LBIKE			RBIKE			
		X1	Y1	Z1	X2	Y2	Z2	X3	Y3	Z3	X4	Y4	Z4	X5	Y5	Z5	X6	Y6	Z6	X7	Y7	Z7	X8	Y8	Z8	X9	Y9	Z9	X10	Y10	Z10	X11	Y11	Z11	X12	Y12	Z12	X13	Y13	Z13	X14	Y14	Z14	X15	Y15	Z15	X16	Y16	Z16	X17	Y17	Z17	X18	Y18	Z18	X19	Y19	Z19	X20	Y20	Z20	X21	Y21	Z21	X22	Y22	Z22	X23	Y23	Z23	X24	Y24	Z24	X25	Y25	Z25	X26	Y26	Z26	X27	Y27	Z27	X28	Y28	Z28	X29	Y29	Z29	X30	Y30	Z30	X31	Y31	Z31	X32	Y32	Z32	X33	Y33	Z33	X34	Y34	Z34	X35	Y35	Z35	X36	Y36	Z36	X37	Y37	Z37	X38	Y38	Z38	X39	Y39	Z39	X40	Y40	Z40	X41	Y41	Z41	X42	Y42	Z42	X43	Y43	Z43	X44	Y44	Z44	X45	Y45	Z45	X46	Y46	Z46	X47	Y47	Z47	X48	Y48	Z48	X49	Y49	Z49	X50	Y50	Z50	
1	0.0050	465.051074	1318.403845	-133.209157	468.828177	1324.832538	-490.332603	478.421014	1367.243457	-316.165630	429.630069	1239.035198	-311.123492	581.257971	1070.398059	-96.029062	723.093518	890.144502	-107.465737	560.219206	1065.638292	-547.842042	704.351460	890.415335	-502.348252	0.057171	1095.579792	-317.578735	147.710916	1098.784263	-452.857274	124.736099	1116.011405	-173.960945	197.143717	1069.933366	-425.134238	176.010478	1082.025809	-191.717186	15.275327	1141.640209	-277.823274	24.691738	1146.178554	-362.641164	108.643828	1037.852911	-126.474087	96.952076	1002.745794	-484.664236	194.399487	1009.189962	-124.131867	281.767099	999.401590	-131.948327	353.823670	958.290486	-108.808621	291.048230	1023.398370	-160.230543	474.056314	870.053358	-141.009652	469.412630	852.139361	-253.614121	454.917273	758.648514	-127.012292	435.939626	673.006250	-147.277404	383.382675	605.433652	-142.098263	448.655108	669.004024	-183.094228	322.238483	500.938788	-150.016038	330.818840	523.562281	-229.362759	535.351527	453.997734	-184.912399	426.944001	431.755888	-129.898318	454.780371	448.196688	-237.200773	200.369612	905.266231	-500.353124	265.671765	848.606659	-498.366130	293.208809	866.250880	-481.035499	292.435281	763.149980	-497.747089	342.633805	674.380567	-475.970595	343.255708	644.340230	-371.983214	290.555630	583.784121	-496.319602	257.216838	505.304088	-480.548763	186.227007	449.851214	-484.338048	273.942086	496.492769	-444.705606	109.501910	377.120705	-467.884483	125.253423	364.962855	-391.749305	29.739694	361.384669	-429.282595	265.825179	198.405497	-440.067509	163.255568	235.526895	-498.291948	-163.116866	859.833927	-310.280476	37.196466	86.456279	-514.351216	34.011923	82.618517	-114.116035	
2	0.0100	464.980640	1318.395026	-133.184672	468.827935	1324.924919	-490.326549	478.374516	1367.284836	-316.175920	429.573381	1239.069332	-311.148863	581.223935	1070.446744	-96.062028	723.085784	890.180818	-107.418311	560.349687	1065.685322	-547.428246	704.439502	890.430807	-502.335336	0.002373	1095.587267	-317.577031	147.637007	1098.772023	-452.864147	124.731965	1115.992410	-173.974342	197.058276	1069.886081	-425.199384	175.985796	1082.044900	-191.737617	15.228345	1141.651500	-277.815510	24.548942	1146.127580	-362.492210	108.606087	1037.834783	-126.475331	96.843937	1002.741848	-484.689195	194.371412	1009.172935	-124.149903	281.723449	999.363221	-131.964340	353.833060	958.305178	-108.840174	291.010634	1023.390916	-160.238991	474.038298	870.099626	-141.016496	469.389129	852.181360	-253.653519	454.900524	758.720861	-127.068781	435.888064	673.047840	-147.314307	383.339838	605.491875	-142.099451	448.621363	669.037575	-183.139017	322.188019	500.986846	-150.025956	330.784390	523.616461	-229.383699	535.296399	454.075081	-184.919506	426.895809	431.855273	-129.906762	454.731335	448.266660	-237.191773	200.265729	905.245715	-500.430059	265.566927	848.612968	-498.436316	293.101223	866.284290	-481.135608	292.355779	763.159618	-497.832857	342.584497	674.415631	-476.070512	343.276087	644.409556	-372.066812	290.551955	583.802918	-496.394445	257.266892	505.300959	-480.612879	186.316747	449.811179	-484.394385	274.002699	496.474585	-444.755960	109.605090	377.082292	-467.930061	125.344809	364.935683	-391.796606	29.859507	361.362070	-429.288226	265.888625	198.235259	-440.054052	163.334217	235.450471	-498.286217	-162.914942	858.998248	-312.873191	37.179688	86.466655	-514.359939	33.705916	82.803873	-114.269581	
3	0.0150	464.913557	1318.406823	-133.181648	468.853456	1324.981586	-490.319993	478.327735	1367.330100	-316.179804	429.525782	1239.067682	-311.179730	581.184130	1070.455584	-96.100356	723.089027	890.206108	-107.409209	560.493616	1065.726924	-547.012750	704.529658	890.444854	-502.310968	-0.055759	1095.581053	-317.545757	147.563767	1098.771252	-452.843471	124.695019	1115.992511	-173.958121	196.977885	1069.850848	-425.233991	175.975131	1082.057198	-191.753458	15.165389	1141.649270	-277.781765	24.493521	1146.117449	-362.474397	108.553794	1037.807154	-126.476282	96.739128	1002.746436	-484.691698	194.338958	1009.130246	-124.158240	281.696141	999.357689	-131.984364	353.793604	958.319885	-108.853104	290.976519	1023.376909	-160.257797	474.042845	870.132262	-141.076933	469.388089	852.207997	-253.686967	454.890053	758.772340	-127.119059	435.861990	673.085981	-147.348393	383.296114	605.532329	-142.121448	448.590412	669.090882	-183.161136	322.130244	501.039878	-150.033218	330.728650	523.658461	-229.393204	535.234546	454.148215	-184.926573	426.852099	431.933290	-129.896494	454.677393	448.338870	-237.224162	200.170877	905.264702	-500.486281	265.471890	848.647311	-498.527633	293.010742	866.327586	-481.216802	292.291768	763.202197	-497.901499	342.556912	674.478551	-476.189990	343.278908	644.483321	-372.182897	290.569983	583.849696	-496.480344	257.318081	505.331379	-480.687343	186.391952	449.795858	-484.443131	274.072691	496.514684	-444.817427	109.744613	377.036992	-467.967300	125.490648	364.878850	-391.821867	29.998210	361.361342	-429.292373	265.952509	198.123383	-440.076867	163.403329	235.362254	-498.292038	-162.853443	858.971036	-313.084269	37.194019	86.455846	-514.353474	34.023557	82.595693	-114.118106	
4	0.0200	464.852763	1318.398936	-133.175708	468.876890	1325.034861	-490.326442	478.284633	1367.372732	-316.209305	429.493069	1239.112952	-311.234544	581.140759	1070.458147	-96.131593	723.079988	890.236335	-107.396153	560.726544	1065.889493	-546.353890	704.612846	890.449982	-502.290351	-0.225576	1095.601314	-318.120775	147.635959	1098.622088	-452.879014	124.308144	1115.703004	-175.363619	196.885623	1069.821633	-425.288265	175.938604	1082.053427	-191.777554	16.468239	1140.615021	-278.922866	24.986242	1145.963246	-364.146491	109.111231	1037.003206	-127.500818	96.638075	1002.741639	-484.688866	194.314168	1009.101781	-124.165590	281.665598	999.348814	-132.012687	353.778780	958.331274	-108.887312	291.216436	1022.805420	-160.116730	474.032835	870.153702	-141.117948	469.387586	852.235122	-253.751563	454.868153	758.810259	-127.161403	434.590109	672.662343	-148.043430	383.423493	605.468824	-142.196519	449.617665	669.883948	-183.851815	321.466246	501.929145	-149.215686	330.557665	523.527409	-229.847659	535.179262	454.228910	-184.944008	426.800094	432.014740	-129.920370	454.619139	448.408020	-237.231874	200.070514	905.280818	-500.523181	265.509555	848.346839	-498.388144	292.849386	866.674184	-481.445645	292.246407	763.138800	-498.009582	342.738976	674.372427	-476.426116	343.162440	644.479332	-373.074274	290.601295	583.907466	-496.554433	257.658113	505.355361	-481.189003	186.394221	449.972371	-484.590281	273.930875	496.643997	-444.360207	109.888092	377.007317	-467.999758	125.631144	364.871040	-391.856859	30.161093	361.369292	-429.295748	265.996465	197.959720	-440.054637	163.481967	235.285443	-498.293004	-162.885100	859.855741	-310.382039	37.190148	86.447500	-514.361076	34.036765	82.547197	-114.136221	
5	0.0250	464.602108	1318.754274	-132.568401	468.689892	1325.279187	-489.820742	478.110630	1367.581301	-315.624362	429.524623	1239.175042	-311.153834	580.751217	1070.791582	-95.731493	722.826178	890.434336	-106.963388	560.744702	1066.116244	-546.040919	704.396088	890.263100	-501.581172	-0.249543	1095.628269	-318.091408	147.551624	1098.344820	-452.956062	124.118476	1116.458043	-174.733113	196.639578	1070.165831	-425.135155	175.949426	1082.028871	-191.865555	16.447342	1140.620757	-278.971057	24.868169	1145.921244	-364.150981	108.677973	1037.521753	-126.869179	96.545531	1002.835146	-484.600928	193.964913	1009.502936	-123.713819	281.364886	999.748459	-131.592964	353.411293	958.811183	-108.301141	291.088650	1023.142114	-159.966733	474.013626	870.337236	-141.081259	469.130741	852.670437	-253.384498	454.403415	759.319624	-126.700315	434.559479	673.274606	-147.791983	382.851421	606.044368	-141.745003	449.355711	670.437029	-183.841750	321.411420	501.987786	-149.167626	330.112473	524.020958	-229.760075	534.913851	454.594174	-184.663069	426.392544	432.551601	-129.453084	454.462387	448.906487	-237.154898	199.826183	905.613802	-500.265669	265.488246	848.503466	-498.361224	292.804411	866.801544	-481.412837	292.233824	763.331896	-498.047251	342.436769	674.806496	-476.218028	342.834269	645.267176	-372.413097	290.461711	584.255232	-496.441905	257.366818	505.830634	-480.798018	186.597088	450.022681	-484.675468	274.027656	496.802893	-444.256153	110.004344	377.006468	-467.989245	125.794883	364.903285	-391.915836	30.326443	361.388022	-429.308870	265.926586	197.726673	-439.923801	163.528081	235.241223	-498.285697	-162.888195	859.103016	-312.720432	37.067731	86.423474	-514.366835	32.786425	83.949449	-114.073540	
6	0.0300	464.527049	1318.795043	-132.437498	468.679511	1325.315591	-489.682994	478.065409	1367.625245	-315.534371	429.526417	1239.144227	-311.182559	580.644393	1070.830631	-95.665285	722.752116	890.484902	-106.880121	560.879167	1066.197755	-545.566807	704.423586	890.258503	-501.421542	-0.325717	1095.654305	-318.057070	147.455187	1098.317081	-452.984989	124.070331	1116.544044	-174.615938	196.517805	1070.196168	-425.105916	175.944991	1082.019831	-191.905826	16.396088	1140.619656	-278.936717	24.823396	1145.920882	-364.156157	108.597021	1037.505626	-126.803429	96.445103	1002.871531	-484.553240	193.915031	1009.517588	-123.663256	281.175214	999.788567	-131.590564	353.348317	958.892341	-108.232862	291.030246	1023.169648	-159.964007	473.986673	870.407277	-141.106318	469.072969	852.766883	-253.365078	454.366173	759.420499	-126.731300	434.577090	673.461164	-147.759314	382.705597	606.192012	-141.680407	449.322057	670.563436	-183.802291	321.351129	502.066237	-149.173405	330.003983	524.168187	-229.759068	534.834305	454.702079	-184.655957	426.283310	432.696355	-129.395699	454.396021	448.984780	-237.128053	199.723021	905.700612	-500.251111	265.427423	848.609511	-498.378039	292.737450	866.918436	-481.435813	292.202443	763.474890	-498.099750	342.412169	674.937821	-476.247010	342.835187	645.438950	-372.382656	290.624031	584.345017	-496.573235	257.400102	505.942693	-480.756107	186.732054	450.032634	-484.722984	274.117540	496.888556	-444.281595	110.153545	377.000505	-467.990012	125.843649	365.033436	-391.890320	30.495312	361.418256	-429.336658	265.925715	197.542712	-439.885013	163.598627	235.202610	-498.292211	-162.910609	859.762501	-310.598156	37.047932	86.448388	-514.348941	32.805586	83.892352	-114.113347	
